<?xml version="1.0" encoding="iso-8859-1"?>
<!-- Generator: Adobe Illustrator 18.1.1, SVG Export Plug-In . SVG Version: 6.00 Build 0)  -->
<svg version="1.1" id="Layer_1" xmlns="http://www.w3.org/2000/svg" xmlns:xlink="http://www.w3.org/1999/xlink" x="0px" y="0px"
	 viewBox="0 0 404.081 65.202" style="enable-background:new 0 0 404.081 65.202;" xml:space="preserve">
<polygon style="fill:#FFFFFF;" points="13.717,0 13.708,21.157 15.899,21.152 7.277,44.05 0,44.041 0,65.202 70.63,65.202 
	70.63,44.012 63.302,44.003 54.755,21.17 56.9,21.18 56.9,0.006 "/>
<g>
	<path style="fill:#BD2036;" d="M35.302,7.906L50.43,47.134c0,0,1.939,4.773,5.087,4.773H44.502c0,0,0.553,0.081,1.104-0.838
		c0.316-0.524,0.05-1.312,0.05-1.312L42.25,41h-6.948h-6.918l-3.412,8.757c0,0-0.26,0.788,0.055,1.312
		c0.549,0.919,1.101,0.838,1.101,0.838H15.114c3.146,0,5.086-4.773,5.086-4.773L35.302,7.906z"/>
</g>
<polygon style="fill:#00275B;" points="35.316,7.857 48.957,7.857 48.957,13.313 43.29,13.313 58.19,51.715 62.596,51.715 
	62.596,57.365 44.13,57.365 44.13,51.868 38.946,51.868 38.946,62.647 68.093,62.647 68.093,46.576 61.548,46.587 51.056,18.616 
	54.351,18.616 54.351,2.554 35.316,2.554 16.281,2.554 16.281,18.616 19.577,18.616 9.084,46.552 2.539,46.576 2.539,62.647 
	31.688,62.647 31.688,51.868 26.502,51.868 26.502,57.365 8.035,57.365 8.035,51.715 12.442,51.715 27.342,13.313 21.675,13.313 
	21.675,7.857 "/>
<g>
	<path style="fill:#00275B;" d="M76.519,57.98c0.533,0.521,0.799,1.159,0.799,1.915c0,0.753-0.265,1.39-0.797,1.912
		c-0.532,0.52-1.183,0.78-1.955,0.78c-0.771,0-1.42-0.26-1.953-0.78c-0.53-0.522-0.796-1.159-0.796-1.912
		c0-0.756,0.267-1.394,0.798-1.915c0.533-0.522,1.183-0.781,1.951-0.781C75.336,57.199,75.986,57.458,76.519,57.98 M76.131,58.304
		c-0.424-0.433-0.947-0.649-1.565-0.649c-0.617,0-1.137,0.216-1.562,0.649c-0.426,0.433-0.638,0.964-0.638,1.591
		c0,0.626,0.212,1.157,0.638,1.589c0.425,0.431,0.945,0.647,1.562,0.647c0.616,0,1.137-0.216,1.564-0.647
		c0.426-0.432,0.639-0.963,0.639-1.589C76.769,59.268,76.557,58.737,76.131,58.304 M73.374,58.336h0.247h1.001
		c0.337,0,0.6,0.075,0.792,0.223c0.191,0.149,0.287,0.357,0.287,0.621c0,0.287-0.096,0.515-0.288,0.678
		c-0.143,0.121-0.327,0.199-0.552,0.229l0.896,1.364h-0.282H75.19l-0.807-1.346l-0.52,0.002v1.344h-0.244h-0.245V58.336z
		 M73.863,59.692h0.663c0.231,0,0.399-0.041,0.506-0.123s0.159-0.211,0.159-0.387c0-0.155-0.052-0.267-0.159-0.341
		c-0.107-0.072-0.275-0.109-0.506-0.109h-0.663V59.692z"/>
</g>
<polygon style="fill:#FFFFFF;" points="35.29,36.842 40.619,36.842 35.395,23.081 29.985,36.842 "/>
<rect x="86.4" y="0" style="fill:#00275B;" width="1.264" height="65.202"/>
<g>
	<path style="fill:#00275B;" d="M402.104,40.391c0.537,0,0.942,0.041,1.216,0.124c0.273,0.083,0.527,0.232,0.761,0.447v-2.857
		c-0.302,0.127-0.922,0.191-1.86,0.191h-2.461v-4.717h-1.23v0.396c0,1.777-0.391,3.076-1.172,3.896
		c-0.655,0.732-1.524,1.192-2.608,1.377v1.143h2.168v6.987c0,1.016,0.03,1.777,0.088,2.285c0.059,0.508,0.166,0.925,0.322,1.252
		c0.157,0.328,0.401,0.667,0.733,1.019c0.888,0.927,1.968,1.391,3.237,1.391c0.401,0,0.781-0.064,1.143-0.19l1.64-2.242
		c-0.468,0.176-0.908,0.264-1.318,0.264c-1.035,0-1.846-0.361-2.432-1.084c-0.224-0.283-0.376-0.625-0.454-1.025
		c-0.078-0.401-0.117-1.045-0.117-1.934v-6.723H402.104z M380.462,38.296h-2.036c0.41,0.312,0.691,0.571,0.843,0.776
		c0.151,0.205,0.249,0.454,0.293,0.747c0.043,0.293,0.065,0.826,0.065,1.597v8.364c0,0.762-0.022,1.292-0.065,1.59
		c-0.044,0.298-0.142,0.549-0.293,0.754c-0.152,0.205-0.433,0.464-0.843,0.776h5.244c-0.4-0.322-0.676-0.583-0.827-0.783
		c-0.152-0.2-0.252-0.462-0.301-0.784c-0.048-0.322-0.073-0.84-0.073-1.553v-6.387c0-0.8,0.142-1.401,0.425-1.801
		c0.312-0.43,0.732-0.767,1.26-1.011c0.527-0.244,1.108-0.366,1.743-0.366c0.654,0,1.272,0.124,1.853,0.373
		c0.581,0.249,1.023,0.574,1.326,0.974c0.244,0.293,0.419,0.687,0.527,1.18c0.107,0.493,0.161,1.159,0.161,1.999v5.039
		c0,0.684-0.024,1.192-0.073,1.524c-0.049,0.332-0.152,0.603-0.308,0.813c-0.156,0.21-0.439,0.471-0.849,0.783h5.288
		c-0.557-0.439-0.896-0.817-1.018-1.135c-0.123-0.317-0.183-0.979-0.183-1.985v-5.376c0-1.201-0.054-2.102-0.162-2.702
		c-0.107-0.601-0.302-1.126-0.585-1.575c-0.303-0.44-0.704-0.833-1.202-1.179c-0.498-0.347-1.071-0.613-1.721-0.799
		c-0.649-0.185-1.296-0.278-1.941-0.278c-0.937,0-1.758,0.183-2.461,0.549c-0.703,0.367-1.445,1.004-2.226,1.912v-2.637
		C381.952,38.096,381.331,38.296,380.462,38.296 M366.472,40.684c0.732-0.616,1.635-0.923,2.71-0.923
		c2.236,0,3.579,1.181,4.028,3.545h-8.188C365.256,42.173,365.739,41.299,366.472,40.684 M376.535,44.77
		c0-0.996-0.18-1.916-0.542-2.761c-0.361-0.844-0.864-1.575-1.508-2.19c-0.645-0.615-1.407-1.093-2.286-1.435
		c-0.878-0.342-1.836-0.513-2.871-0.513c-1.054,0-2.028,0.154-2.922,0.461c-0.894,0.308-1.677,0.765-2.351,1.37
		c-0.518,0.469-0.972,1.023-1.362,1.663c-0.391,0.639-0.691,1.318-0.901,2.036c-0.21,0.718-0.315,1.443-0.315,2.175
		c0,1.494,0.378,2.832,1.135,4.014c0.757,1.181,1.821,2.1,3.193,2.754c1.372,0.654,2.918,0.981,4.637,0.981
		c0.507,0,1.013-0.024,1.516-0.073c0.503-0.049,0.981-0.13,1.435-0.242c0.454-0.112,0.93-0.261,1.428-0.447l1.714-3.017
		c-0.576,0.391-1.133,0.705-1.67,0.945c-0.537,0.239-1.111,0.415-1.721,0.527c-0.61,0.112-1.247,0.168-1.911,0.168
		c-1.241,0-2.335-0.234-3.282-0.703c-0.947-0.468-1.679-1.147-2.197-2.036c-0.518-0.888-0.806-1.943-0.864-3.164h11.645V44.77z
		 M336.781,38.296h-2.197c0.41,0.312,0.691,0.571,0.842,0.776s0.249,0.454,0.293,0.747c0.044,0.293,0.066,0.826,0.066,1.597v8.364
		c0,0.762-0.022,1.292-0.066,1.59s-0.142,0.549-0.293,0.754c-0.151,0.205-0.432,0.464-0.842,0.776h5.244
		c-0.391-0.293-0.664-0.544-0.82-0.754c-0.157-0.21-0.259-0.478-0.308-0.806c-0.049-0.327-0.073-0.847-0.073-1.56v-5.61
		c0-0.645,0.039-1.135,0.117-1.472c0.078-0.337,0.22-0.657,0.425-0.96c0.302-0.449,0.718-0.796,1.245-1.04
		c0.527-0.244,1.103-0.366,1.728-0.366c0.489,0,0.975,0.093,1.458,0.278c0.483,0.186,0.876,0.445,1.179,0.777
		c0.645,0.673,0.967,1.753,0.967,3.237v5.156c0,0.694-0.024,1.209-0.073,1.546c-0.049,0.337-0.147,0.605-0.293,0.805
		c-0.147,0.201-0.425,0.457-0.835,0.769h5.273c-0.566-0.449-0.913-0.83-1.04-1.142c-0.127-0.313-0.19-0.972-0.19-1.978v-5.405
		c0-0.733,0.019-1.243,0.058-1.531c0.039-0.288,0.132-0.573,0.279-0.857c0.293-0.547,0.727-0.979,1.303-1.296
		c0.577-0.317,1.202-0.476,1.875-0.476c1.211,0,2.154,0.41,2.828,1.23c0.283,0.381,0.488,0.83,0.615,1.348
		c0.127,0.518,0.19,1.216,0.19,2.095v4.892c0,0.694-0.024,1.209-0.073,1.546c-0.049,0.337-0.149,0.608-0.3,0.813
		c-0.152,0.205-0.437,0.459-0.857,0.761h5.493c-0.401-0.166-0.701-0.356-0.901-0.571c-0.2-0.215-0.337-0.517-0.41-0.908
		c-0.073-0.391-0.11-0.938-0.11-1.641v-5.669c0-1.015-0.056-1.814-0.168-2.395c-0.113-0.581-0.306-1.091-0.579-1.531
		c-0.42-0.712-1.072-1.276-1.956-1.691c-0.884-0.415-1.872-0.623-2.966-0.623c-0.684,0-1.311,0.093-1.882,0.278
		c-0.572,0.186-1.097,0.474-1.575,0.865c-0.479,0.39-0.986,0.937-1.523,1.64c-0.596-0.967-1.275-1.672-2.037-2.116
		c-0.761-0.445-1.689-0.667-2.783-0.667c-1.006,0-1.865,0.19-2.578,0.571c-0.713,0.381-1.396,1.021-2.051,1.919v-2.666
		C338.138,38.096,337.572,38.296,336.781,38.296 M322.629,40.684c0.733-0.616,1.636-0.923,2.71-0.923
		c2.237,0,3.579,1.181,4.029,3.545h-8.189C321.414,42.173,321.897,41.299,322.629,40.684 M332.693,44.77
		c0-0.996-0.181-1.916-0.542-2.761c-0.361-0.844-0.864-1.575-1.509-2.19c-0.644-0.615-1.406-1.093-2.285-1.435
		s-1.836-0.513-2.871-0.513c-1.055,0-2.029,0.154-2.922,0.461c-0.894,0.308-1.678,0.765-2.351,1.37
		c-0.518,0.469-0.972,1.023-1.363,1.663c-0.39,0.639-0.691,1.318-0.901,2.036c-0.21,0.718-0.315,1.443-0.315,2.175
		c0,1.494,0.379,2.832,1.136,4.014c0.756,1.181,1.821,2.1,3.193,2.754s2.917,0.981,4.636,0.981c0.508,0,1.013-0.024,1.516-0.073
		s0.982-0.13,1.436-0.242c0.454-0.112,0.93-0.261,1.428-0.447l1.714-3.017c-0.576,0.391-1.133,0.705-1.67,0.945
		c-0.537,0.239-1.111,0.415-1.721,0.527c-0.611,0.112-1.248,0.168-1.912,0.168c-1.24,0-2.334-0.234-3.281-0.703
		c-0.947-0.468-1.68-1.147-2.197-2.036c-0.518-0.888-0.806-1.943-0.865-3.164h11.646V44.77z M310.389,40.815
		c0.771,0.743,1.157,1.651,1.157,2.725c0,0.947-0.293,1.719-0.879,2.314c-0.586,0.596-1.352,0.894-2.3,0.894
		c-1.133,0-2.097-0.393-2.893-1.179c-0.796-0.786-1.193-1.741-1.193-2.864c0-0.859,0.314-1.575,0.944-2.146s1.409-0.857,2.337-0.857
		C308.675,39.702,309.617,40.073,310.389,40.815 M313.67,38.135c-0.967,0-1.977-0.039-3.032-0.117
		c-1.465-0.098-2.383-0.147-2.754-0.147c-1.201,0-2.302,0.239-3.303,0.718c-1.001,0.478-1.785,1.128-2.351,1.948
		c-0.567,0.82-0.85,1.734-0.85,2.739c0,0.703,0.151,1.387,0.454,2.051c0.303,0.664,0.728,1.24,1.275,1.729
		c0.361,0.312,0.688,0.539,0.981,0.681c0.293,0.141,0.727,0.29,1.304,0.447c-0.703,0.273-1.233,0.5-1.59,0.681
		c-0.356,0.18-0.6,0.346-0.732,0.498c-0.132,0.151-0.198,0.329-0.198,0.534c0,0.264,0.074,0.564,0.22,0.901
		c0.146,0.337,0.322,0.608,0.527,0.813c0.411,0.362,0.913,0.542,1.509,0.542c0.293,0,0.532-0.009,0.718-0.029
		c0.381-0.02,0.888-0.029,1.523-0.029c2.158,0,3.77,0.249,4.834,0.747c1.065,0.498,1.597,1.259,1.597,2.285
		c0,0.683-0.234,1.286-0.703,1.809c-0.469,0.522-1.131,0.93-1.985,1.223c-0.855,0.293-1.829,0.44-2.922,0.44
		c-1.651,0-2.964-0.306-3.941-0.916c-0.976-0.61-1.465-1.443-1.465-2.498c0-0.439,0.115-0.774,0.345-1.003
		c0.229-0.23,0.583-0.388,1.062-0.476c-0.596-0.254-1.167-0.381-1.714-0.381c-0.606,0-1.131,0.103-1.575,0.308
		c-0.444,0.205-0.781,0.495-1.011,0.871c-0.229,0.376-0.344,0.823-0.344,1.341c0,0.849,0.383,1.623,1.15,2.321
		c0.766,0.699,1.816,1.246,3.149,1.641c1.333,0.396,2.791,0.593,4.373,0.593c0.713,0,1.406-0.049,2.08-0.146
		c0.674-0.098,1.301-0.237,1.882-0.418c0.581-0.18,1.136-0.405,1.663-0.673c0.527-0.269,1.001-0.574,1.421-0.916
		c1.055-0.859,1.582-1.983,1.582-3.369c0-0.908-0.23-1.68-0.689-2.315c-0.322-0.419-0.757-0.808-1.303-1.164
		c-0.547-0.357-1.089-0.608-1.626-0.755c-0.645-0.185-1.326-0.309-2.044-0.373c-0.718-0.063-1.799-0.105-3.244-0.125
		c-0.879,0-1.319-0.2-1.319-0.6c0-0.195,0.1-0.359,0.301-0.491c0.2-0.132,0.52-0.242,0.959-0.329
		c1.367-0.137,2.417-0.347,3.149-0.63c1.192-0.43,2.09-1.011,2.696-1.744c0.605-0.732,0.908-1.591,0.908-2.578
		c0-0.8-0.186-1.513-0.557-2.138s-0.966-1.221-1.787-1.787c1.729,0.302,2.891,0.454,3.487,0.454c0.458,0,0.756-0.132,0.893-0.396
		l0.908-2.036C316.165,38.047,314.861,38.135,313.67,38.135 M294.608,51.274c0.161,0.44,0.481,0.811,0.96,1.114
		c0.38,0.234,0.781,0.398,1.201,0.49c0.42,0.093,1.011,0.169,1.772,0.227l1.377-2.065c-0.869-0.029-1.499-0.2-1.889-0.513
		c-0.362-0.263-0.586-0.549-0.674-0.857c-0.088-0.307-0.132-0.91-0.132-1.809v-4.087c0-1.162-0.037-1.97-0.11-2.424
		s-0.247-0.906-0.52-1.355c-0.889-1.416-2.671-2.124-5.347-2.124c-0.761,0-1.494,0.068-2.197,0.205l-2.095,3.179
		c1.035-0.498,1.851-0.833,2.447-1.004c0.595-0.17,1.22-0.256,1.875-0.256c0.586,0,1.11,0.083,1.574,0.249
		c0.464,0.166,0.823,0.403,1.077,0.711c0.254,0.307,0.381,0.661,0.381,1.062c0,0.566-0.237,0.996-0.711,1.289
		c-0.473,0.293-1.428,0.581-2.863,0.864c-1.983,0.381-3.37,0.791-4.161,1.23c-0.537,0.284-0.966,0.721-1.289,1.311
		c-0.322,0.591-0.483,1.214-0.483,1.868c0,1.377,0.537,2.549,1.611,3.516c0.918,0.82,2.168,1.23,3.75,1.23
		c0.616,0,1.196-0.064,1.743-0.19l1.861-2.359c-0.899,0.274-1.69,0.41-2.373,0.41c-1.055,0-1.878-0.229-2.468-0.688
		c-0.591-0.459-0.887-1.089-0.887-1.89c0-1.25,0.762-2.06,2.285-2.431c1.143-0.264,1.878-0.44,2.205-0.528s0.625-0.178,0.894-0.271
		c0.268-0.092,0.583-0.227,0.944-0.402v4.086C294.366,50.098,294.447,50.835,294.608,51.274 M270.108,38.296h-2.036
		c0.41,0.312,0.691,0.571,0.842,0.776c0.151,0.205,0.249,0.454,0.293,0.747c0.044,0.293,0.066,0.826,0.066,1.597v8.364
		c0,0.762-0.022,1.292-0.066,1.59c-0.044,0.298-0.142,0.549-0.293,0.754c-0.151,0.205-0.432,0.464-0.842,0.776h5.244
		c-0.4-0.322-0.676-0.583-0.828-0.783c-0.151-0.2-0.251-0.462-0.3-0.784c-0.049-0.322-0.073-0.84-0.073-1.553v-6.387
		c0-0.8,0.141-1.401,0.425-1.801c0.312-0.43,0.732-0.767,1.259-1.011c0.528-0.244,1.109-0.366,1.744-0.366
		c0.654,0,1.271,0.124,1.853,0.373c0.581,0.249,1.022,0.574,1.325,0.974c0.244,0.293,0.42,0.687,0.528,1.18
		c0.107,0.493,0.161,1.159,0.161,1.999v5.039c0,0.684-0.025,1.192-0.073,1.524c-0.049,0.332-0.152,0.603-0.308,0.813
		c-0.156,0.21-0.44,0.471-0.85,0.783h5.288c-0.556-0.439-0.896-0.817-1.018-1.135c-0.122-0.317-0.183-0.979-0.183-1.985v-5.376
		c0-1.201-0.054-2.102-0.161-2.702c-0.107-0.601-0.303-1.126-0.586-1.575c-0.303-0.44-0.703-0.833-1.201-1.179
		c-0.498-0.347-1.072-0.613-1.721-0.799c-0.65-0.185-1.297-0.278-1.941-0.278c-0.938,0-1.758,0.183-2.461,0.549
		c-0.703,0.367-1.445,1.004-2.227,1.912v-2.637C271.597,38.096,270.977,38.296,270.108,38.296 M261.707,51.274
		c0.161,0.44,0.481,0.811,0.96,1.114c0.381,0.234,0.781,0.398,1.201,0.49c0.42,0.093,1.011,0.169,1.772,0.227l1.377-2.065
		c-0.869-0.029-1.499-0.2-1.889-0.513c-0.362-0.263-0.586-0.549-0.674-0.857c-0.088-0.307-0.132-0.91-0.132-1.809v-4.087
		c0-1.162-0.037-1.97-0.11-2.424s-0.247-0.906-0.52-1.355c-0.889-1.416-2.671-2.124-5.347-2.124c-0.761,0-1.494,0.068-2.197,0.205
		l-2.095,3.179c1.035-0.498,1.851-0.833,2.447-1.004c0.595-0.17,1.22-0.256,1.875-0.256c0.586,0,1.111,0.083,1.574,0.249
		c0.464,0.166,0.823,0.403,1.077,0.711c0.254,0.307,0.381,0.661,0.381,1.062c0,0.566-0.237,0.996-0.71,1.289
		c-0.474,0.293-1.429,0.581-2.864,0.864c-1.983,0.381-3.369,0.791-4.16,1.23c-0.538,0.284-0.967,0.721-1.289,1.311
		c-0.323,0.591-0.484,1.214-0.484,1.868c0,1.377,0.537,2.549,1.611,3.516c0.918,0.82,2.168,1.23,3.75,1.23
		c0.616,0,1.197-0.064,1.744-0.19l1.86-2.359c-0.899,0.274-1.69,0.41-2.373,0.41c-1.055,0-1.878-0.229-2.468-0.688
		c-0.591-0.459-0.887-1.089-0.887-1.89c0-1.25,0.762-2.06,2.286-2.431c1.142-0.264,1.877-0.44,2.204-0.528s0.625-0.178,0.894-0.271
		c0.268-0.092,0.583-0.227,0.945-0.402v4.086C261.466,50.098,261.546,50.835,261.707,51.274 M230.82,33.154
		c-0.205-0.488-0.308-0.854-0.308-1.098h-5.552c0.411,0.283,0.698,0.549,0.865,0.798c0.166,0.249,0.249,0.559,0.249,0.93
		c0,0.225-0.059,0.767-0.176,1.626l-1.831,13.316c-0.127,1.045-0.315,1.877-0.564,2.497c-0.249,0.62-0.633,1.179-1.15,1.677h5.2
		c-0.322-0.224-0.574-0.434-0.754-0.63c-0.181-0.195-0.31-0.402-0.388-0.622c-0.079-0.22-0.118-0.5-0.118-0.842
		c0-0.274,0.049-0.826,0.147-1.656l1.86-13.974l6.211,14.663c0.273,0.615,0.464,1.025,0.571,1.23
		c0.108,0.205,0.259,0.437,0.455,0.696c0.195,0.259,0.378,0.469,0.549,0.63c0.171,0.161,0.515,0.471,1.033,0.93l7.104-18.149
		l1.685,13.55c0.097,0.898,0.146,1.489,0.146,1.772c0,0.654-0.098,1.162-0.293,1.523c-0.195,0.362-0.537,0.655-1.025,0.879h6.123
		c-0.577-0.468-0.967-0.93-1.172-1.384s-0.376-1.243-0.513-2.366l-1.948-13.974c-0.059-0.401-0.088-0.781-0.088-1.143
		c0-1.015,0.327-1.675,0.982-1.977h-5.479c0,0.4-0.027,0.703-0.081,0.908c-0.053,0.205-0.227,0.659-0.52,1.362l-5.127,13.14
		L230.82,33.154z M208.29,37.871c-1.28,0-2.386,0.168-3.318,0.505c-0.933,0.337-1.648,0.828-2.146,1.473
		c-0.498,0.644-0.747,1.406-0.747,2.285c0,0.674,0.144,1.247,0.432,1.721s0.769,0.911,1.443,1.311c0.674,0.4,1.626,0.82,2.856,1.26
		c1.651,0.595,2.661,1.025,3.033,1.289c0.478,0.342,0.717,0.82,0.717,1.435c0,0.635-0.327,1.165-0.981,1.59
		c-0.654,0.424-1.465,0.637-2.432,0.637c-0.674,0-1.311-0.061-1.911-0.183c-0.601-0.122-1.219-0.325-1.853-0.608
		c-0.635-0.283-1.353-0.674-2.154-1.172l1.084,3.12c0.85,0.313,1.563,0.522,2.139,0.63c0.576,0.107,1.284,0.161,2.124,0.161
		c1.416,0,2.649-0.2,3.699-0.6c1.049-0.401,1.86-0.977,2.431-1.729c0.572-0.752,0.857-1.616,0.857-2.593
		c0-1.074-0.41-1.997-1.23-2.768c-0.41-0.371-0.867-0.674-1.37-0.909c-0.503-0.234-1.365-0.551-2.585-0.952
		c-0.86-0.273-1.529-0.517-2.007-0.732c-0.479-0.215-0.825-0.444-1.04-0.689c-0.215-0.244-0.322-0.517-0.322-0.82
		c0-0.527,0.266-0.954,0.798-1.282c0.532-0.327,1.238-0.49,2.117-0.49c1.23,0,2.529,0.41,3.896,1.23v-2.695
		C210.853,38.013,209.676,37.871,208.29,37.871 M189.377,40.684c0.733-0.616,1.636-0.923,2.71-0.923
		c2.236,0,3.579,1.181,4.028,3.545h-8.188C188.161,42.173,188.645,41.299,189.377,40.684 M199.441,44.77
		c0-0.996-0.181-1.916-0.542-2.761c-0.362-0.844-0.865-1.575-1.509-2.19c-0.645-0.615-1.406-1.093-2.285-1.435
		c-0.879-0.342-1.836-0.513-2.871-0.513c-1.055,0-2.029,0.154-2.923,0.461c-0.893,0.308-1.677,0.765-2.351,1.37
		c-0.518,0.469-0.972,1.023-1.362,1.663c-0.391,0.639-0.691,1.318-0.901,2.036c-0.21,0.718-0.315,1.443-0.315,2.175
		c0,1.494,0.378,2.832,1.135,4.014c0.757,1.181,1.821,2.1,3.194,2.754c1.372,0.654,2.917,0.981,4.636,0.981
		c0.508,0,1.013-0.024,1.516-0.073c0.503-0.049,0.981-0.13,1.436-0.242c0.454-0.112,0.93-0.261,1.428-0.447l1.714-3.017
		c-0.577,0.391-1.133,0.705-1.67,0.945c-0.538,0.239-1.111,0.415-1.722,0.527c-0.61,0.112-1.247,0.168-1.911,0.168
		c-1.24,0-2.334-0.234-3.281-0.703c-0.948-0.468-1.68-1.147-2.198-2.036c-0.517-0.888-0.805-1.943-0.864-3.164h11.646V44.77z
		 M178.647,33.008c-0.39,0.381-0.586,0.84-0.586,1.377c0,0.556,0.188,1.028,0.564,1.413c0.376,0.386,0.838,0.579,1.385,0.579
		c0.566,0,1.037-0.193,1.413-0.579c0.376-0.385,0.564-0.857,0.564-1.413c0-0.528-0.185-0.984-0.556-1.37
		c-0.372-0.386-0.826-0.579-1.363-0.579C179.512,32.436,179.038,32.627,178.647,33.008 M179.658,38.296h-2.197
		c0.41,0.312,0.691,0.571,0.842,0.776c0.151,0.205,0.249,0.454,0.293,0.747c0.044,0.293,0.066,0.826,0.066,1.597v8.364
		c0,0.762-0.022,1.292-0.066,1.59c-0.044,0.298-0.142,0.549-0.293,0.754c-0.151,0.205-0.432,0.464-0.842,0.776h5.244
		c-0.401-0.322-0.676-0.583-0.828-0.783c-0.151-0.2-0.251-0.462-0.3-0.784c-0.049-0.322-0.073-0.84-0.073-1.553V37.695
		C181.133,38.096,180.517,38.296,179.658,38.296 M173.96,40.391c0.537,0,0.942,0.041,1.216,0.124
		c0.273,0.083,0.527,0.232,0.762,0.447v-2.857c-0.303,0.127-0.923,0.191-1.861,0.191h-2.461v-4.717h-1.23v0.396
		c0,1.777-0.391,3.076-1.172,3.896c-0.654,0.732-1.523,1.192-2.607,1.377v1.143h2.168v6.987c0,1.016,0.029,1.777,0.088,2.285
		c0.058,0.508,0.165,0.925,0.322,1.252c0.156,0.328,0.4,0.667,0.732,1.019c0.889,0.927,1.968,1.391,3.238,1.391
		c0.4,0,0.781-0.064,1.142-0.19l1.641-2.242c-0.469,0.176-0.908,0.264-1.319,0.264c-1.035,0-1.845-0.361-2.431-1.084
		c-0.225-0.283-0.376-0.625-0.454-1.025c-0.079-0.401-0.118-1.045-0.118-1.934v-6.723H173.96z M161.433,33.008
		c-0.391,0.381-0.586,0.84-0.586,1.377c0,0.556,0.187,1.028,0.564,1.413c0.375,0.386,0.837,0.579,1.384,0.579
		c0.566,0,1.037-0.193,1.413-0.579c0.376-0.385,0.564-0.857,0.564-1.413c0-0.528-0.185-0.984-0.556-1.37
		c-0.372-0.386-0.826-0.579-1.363-0.579C162.297,32.436,161.823,32.627,161.433,33.008 M162.443,38.296h-2.197
		c0.41,0.312,0.691,0.571,0.842,0.776c0.152,0.205,0.249,0.454,0.293,0.747c0.044,0.293,0.066,0.826,0.066,1.597v8.364
		c0,0.762-0.022,1.292-0.066,1.59c-0.044,0.298-0.141,0.549-0.293,0.754c-0.151,0.205-0.432,0.464-0.842,0.776h5.244
		c-0.4-0.322-0.676-0.583-0.828-0.783c-0.151-0.2-0.251-0.462-0.3-0.784c-0.049-0.322-0.073-0.84-0.073-1.553V37.695
		C163.918,38.096,163.302,38.296,162.443,38.296 M157.27,51.765c-0.122-0.317-0.183-0.979-0.183-1.985V31.455
		c-0.371,0.401-0.991,0.601-1.86,0.601h-2.183c0.41,0.312,0.691,0.569,0.842,0.769c0.152,0.2,0.25,0.446,0.293,0.739
		c0.044,0.293,0.066,0.831,0.066,1.612V49.78c0,0.762-0.022,1.292-0.066,1.59c-0.043,0.298-0.141,0.549-0.293,0.754
		c-0.151,0.205-0.432,0.464-0.842,0.776h5.244C157.732,52.461,157.392,52.083,157.27,51.765 M147.098,33.008
		c-0.391,0.381-0.586,0.84-0.586,1.377c0,0.556,0.188,1.028,0.564,1.413c0.376,0.386,0.837,0.579,1.384,0.579
		c0.567,0,1.038-0.193,1.414-0.579c0.376-0.385,0.564-0.857,0.564-1.413c0-0.528-0.186-0.984-0.557-1.37
		c-0.371-0.386-0.825-0.579-1.362-0.579C147.962,32.436,147.489,32.627,147.098,33.008 M148.109,38.296h-2.197
		c0.41,0.312,0.69,0.571,0.842,0.776c0.151,0.205,0.249,0.454,0.293,0.747c0.044,0.293,0.066,0.826,0.066,1.597v8.364
		c0,0.762-0.022,1.292-0.066,1.59c-0.044,0.298-0.142,0.549-0.293,0.754c-0.152,0.205-0.432,0.464-0.842,0.776h5.244
		c-0.401-0.322-0.677-0.583-0.828-0.783c-0.151-0.2-0.251-0.462-0.3-0.784c-0.049-0.322-0.073-0.84-0.073-1.553V37.695
		C149.583,38.096,148.968,38.296,148.109,38.296 M139.676,37.871c-1.368,0-2.571,0.181-3.611,0.542
		c-1.04,0.361-1.985,0.933-2.835,1.714c-1.719,1.582-2.578,3.501-2.578,5.757c0,1.054,0.215,2.043,0.645,2.966
		c0.429,0.923,1.035,1.719,1.816,2.388c0.781,0.669,1.692,1.184,2.732,1.545s2.19,0.542,3.45,0.542c1.718,0,3.066-0.19,4.043-0.571
		l1.86-3.091c-0.527,0.342-1.062,0.628-1.604,0.857c-0.542,0.23-1.082,0.398-1.619,0.505c-0.537,0.108-1.074,0.161-1.611,0.161
		c-1.221,0-2.322-0.256-3.303-0.769c-0.982-0.512-1.756-1.228-2.322-2.146c-0.566-0.917-0.85-1.933-0.85-3.046
		c0-1.035,0.218-1.951,0.652-2.747c0.435-0.796,1.06-1.409,1.875-1.838c0.816-0.43,1.736-0.645,2.762-0.645
		c1.582,0,2.9,0.513,3.955,1.538v-3.266C142,38.003,140.847,37.871,139.676,37.871 M124.781,51.274
		c0.161,0.44,0.481,0.811,0.96,1.114c0.38,0.234,0.781,0.398,1.201,0.49c0.42,0.093,1.011,0.169,1.772,0.227l1.377-2.065
		c-0.869-0.029-1.499-0.2-1.889-0.513c-0.362-0.263-0.586-0.549-0.674-0.857c-0.088-0.307-0.132-0.91-0.132-1.809v-4.087
		c0-1.162-0.037-1.97-0.11-2.424c-0.073-0.454-0.247-0.906-0.52-1.355c-0.889-1.416-2.671-2.124-5.347-2.124
		c-0.761,0-1.494,0.068-2.197,0.205l-2.095,3.179c1.035-0.498,1.851-0.833,2.447-1.004c0.595-0.17,1.22-0.256,1.875-0.256
		c0.586,0,1.11,0.083,1.574,0.249c0.464,0.166,0.823,0.403,1.077,0.711c0.254,0.307,0.381,0.661,0.381,1.062
		c0,0.566-0.237,0.996-0.711,1.289c-0.473,0.293-1.428,0.581-2.863,0.864c-1.983,0.381-3.37,0.791-4.161,1.23
		c-0.537,0.284-0.966,0.721-1.289,1.311c-0.322,0.591-0.483,1.214-0.483,1.868c0,1.377,0.537,2.549,1.611,3.516
		c0.918,0.82,2.168,1.23,3.75,1.23c0.616,0,1.196-0.064,1.743-0.19l1.861-2.359c-0.899,0.274-1.69,0.41-2.373,0.41
		c-1.055,0-1.878-0.229-2.468-0.688c-0.591-0.459-0.887-1.089-0.887-1.89c0-1.25,0.762-2.06,2.285-2.431
		c1.143-0.264,1.878-0.44,2.205-0.528c0.327-0.088,0.625-0.178,0.894-0.271c0.268-0.092,0.583-0.227,0.944-0.402v4.086
		C124.539,50.098,124.62,50.835,124.781,51.274 M110.835,42.705c0.723,0,1.262,0.064,1.619,0.19
		c0.356,0.127,0.646,0.352,0.871,0.674v-3.354c-0.293,0.137-0.649,0.205-1.069,0.205h-4.234v-5.903
		c0.372-0.069,0.83-0.122,1.377-0.162c0.547-0.039,1.187-0.058,1.919-0.058c0.996,0,1.76,0.083,2.293,0.249
		c0.532,0.166,1.047,0.493,1.545,0.981v-3.662c-0.322,0.127-0.723,0.191-1.201,0.191h-10.532c0.39,0.205,0.688,0.451,0.893,0.739
		c0.206,0.288,0.345,0.684,0.418,1.187s0.11,1.208,0.11,2.117v12.758c0,0.909-0.037,1.614-0.11,2.117
		c-0.073,0.503-0.212,0.899-0.418,1.187c-0.205,0.288-0.503,0.534-0.893,0.739h6.006c-0.401-0.205-0.699-0.449-0.894-0.732
		s-0.329-0.679-0.403-1.187c-0.073-0.507-0.11-1.215-0.11-2.124v-6.152H110.835z"/>
	<path style="fill:#00275B;" d="M279.631,21.65h1.35l0.81-2.325h3.96l0.78,2.325h1.455l-3.315-9.343h-1.575L279.631,21.65z
		 M282.166,18.232l0.99-2.835c0.24-0.675,0.525-1.515,0.645-1.98h0.03c0.09,0.42,0.345,1.17,0.555,1.815l1.005,3H282.166z
		 M270.677,21.65h1.213v-6.179c0-0.495-0.03-0.855-0.03-1.26h0.03c0.225,0.45,0.495,0.96,0.781,1.425l3.766,6.014h1.423v-9.343
		h-1.213v6.179c0,0.495,0.015,0.899,0.03,1.319h-0.045c-0.21-0.465-0.525-1.049-0.795-1.469l-3.767-6.029h-1.393V21.65z
		 M264.196,20.662c-1.905,0-2.746-1.501-2.746-3.676c0-2.176,0.841-3.691,2.746-3.691c1.906,0,2.761,1.5,2.761,3.676
		C266.957,19.146,266.102,20.662,264.196,20.662 M264.196,21.77c2.881,0,4.184-2.263,4.184-4.799c0-2.671-1.303-4.784-4.184-4.784
		c-2.88,0-4.184,2.263-4.184,4.799C260.012,19.657,261.316,21.77,264.196,21.77 M252.511,21.65h6.21v-1.108h-4.65l4.53-7.097v-1.138
		h-5.91v1.108h4.41l-4.59,7.157V21.65z M249.018,21.65h1.333v-9.343h-1.333V21.65z M241.621,16.552v-3.197h1.471
		c1.2,0,1.756,0.54,1.756,1.606c0,0.96-0.586,1.591-1.756,1.591H241.621z M246.616,21.74c0.195,0,0.36-0.015,0.54-0.06v-1.048
		c-0.12,0.015-0.225,0.03-0.33,0.03c-0.3,0-0.555-0.105-0.81-0.495l-1.874-2.777c1.425-0.359,2.069-1.408,2.069-2.444
		c0-1.666-1.094-2.639-2.819-2.639h-3.104v9.343h1.333v-4.125h1.171l2.101,3.21C245.372,21.485,245.911,21.74,246.616,21.74
		 M230.192,21.65h1.35l0.81-2.325h3.96l0.78,2.325h1.455l-3.315-9.343h-1.575L230.192,21.65z M232.727,18.232l0.99-2.835
		c0.24-0.675,0.525-1.515,0.645-1.98h0.03c0.09,0.42,0.345,1.17,0.555,1.815l1.005,3H232.727z M220.293,21.65h1.333v-4.44h3.51
		v-1.048h-3.51v-2.747h3.9v-1.108h-5.233V21.65z M213.842,20.662c-1.905,0-2.745-1.501-2.745-3.676c0-2.176,0.84-3.691,2.745-3.691
		c1.906,0,2.761,1.5,2.761,3.676C216.603,19.146,215.748,20.662,213.842,20.662 M213.842,21.77c2.881,0,4.185-2.263,4.185-4.799
		c0-2.671-1.304-4.784-4.185-4.784c-2.88,0-4.184,2.263-4.184,4.799C209.658,19.657,210.962,21.77,213.842,21.77 M200.584,21.65
		h1.333v-3.659l3.075-5.669h-1.395l-2.264,4.469l-2.324-4.469h-1.455l3.03,5.669V21.65z M193.084,21.65h1.333v-8.235h2.7v-1.108
		h-6.613v1.108h2.58V21.65z M187.474,21.65h1.333v-9.343h-1.333V21.65z M182.163,21.77c1.816,0,3.06-1.033,3.06-2.654
		c0-1.785-1.304-2.355-2.474-2.865c-1.156-0.51-1.756-0.75-1.756-1.621c0-0.855,0.585-1.35,1.681-1.35
		c0.84,0,1.665,0.255,2.114,0.48v-1.169c-0.344-0.12-1.244-0.404-2.174-0.404c-1.741,0-2.955,0.823-2.955,2.458
		c0,1.561,0.974,2.131,1.964,2.581c1.366,0.63,2.191,0.87,2.191,1.95c0,1.021-0.72,1.501-1.876,1.501
		c-0.84,0-1.769-0.315-2.339-0.57v1.184C180.214,21.56,181.128,21.77,182.163,21.77 M172.773,16.552v-3.197h1.471
		c1.2,0,1.756,0.54,1.756,1.606c0,0.96-0.586,1.591-1.756,1.591H172.773z M177.768,21.74c0.195,0,0.36-0.015,0.54-0.06v-1.048
		c-0.12,0.015-0.225,0.03-0.33,0.03c-0.3,0-0.555-0.105-0.81-0.495l-1.874-2.777c1.425-0.359,2.069-1.408,2.069-2.444
		c0-1.666-1.094-2.639-2.819-2.639h-3.104v9.343h1.333v-4.125h1.17l2.102,3.21C176.524,21.485,177.063,21.74,177.768,21.74
		 M164,21.65h5.113v-1.108h-3.78v-3.347h3.225v-1.063h-3.225v-2.717h3.78v-1.108H164V21.65z M157.564,21.65h1.44l3.33-9.343h-1.35
		l-1.995,5.879c-0.24,0.69-0.525,1.694-0.645,2.159h-0.03c-0.105-0.465-0.39-1.454-0.615-2.159l-1.935-5.879h-1.47L157.564,21.65z
		 M151.235,21.65h1.333v-9.343h-1.333V21.65z M141.17,21.65h1.213v-6.179c0-0.495-0.03-0.855-0.03-1.26h0.03
		c0.225,0.45,0.496,0.96,0.781,1.425l3.766,6.014h1.423v-9.343h-1.213v6.179c0,0.495,0.015,0.899,0.03,1.319h-0.045
		c-0.21-0.465-0.525-1.049-0.795-1.469l-3.767-6.029h-1.393V21.65z M134.929,21.77c1.996,0,3.48-1.093,3.48-3.358v-6.105h-1.259
		v5.94c0,1.515-0.72,2.415-2.221,2.415c-1.5,0-2.19-0.9-2.19-2.415v-5.94h-1.334v6.105C131.405,20.677,132.949,21.77,134.929,21.77
		 M120.396,21.65h5.113v-1.108h-3.78v-3.347h3.225v-1.063h-3.225v-2.717h3.78v-1.108h-5.113V21.65z M110.361,21.65h1.333v-4.335
		h4.577v4.335h1.333v-9.343h-1.333v3.945h-4.577v-3.945h-1.333V21.65z M104.691,21.65h1.333v-8.235h2.7v-1.108h-6.613v1.108h2.58
		V21.65z"/>
</g>
</svg>
